<svg xmlns="http://www.w3.org/2000/svg" width="320" height="320" viewBox="0 0 320 320">
<rect width="320" height="320" fill="none"/>
<circle cx="0" cy="0" r="0.45" fill="#17181d" opacity="0.14"/>
<circle cx="60" cy="102" r="0.55" fill="#17181d" opacity="0.18"/>
<circle cx="120" cy="204" r="0.7" fill="#17181d" opacity="0.22"/>
<circle cx="180" cy="306" r="0.9" fill="#17181d" opacity="0.26"/>
<circle cx="240" cy="88" r="1.15" fill="#17181d" opacity="0.31"/>
<circle cx="300" cy="190" r="1.5" fill="#17181d" opacity="0.14"/>
<circle cx="40" cy="292" r="0.45" fill="#17181d" opacity="0.18"/>
<circle cx="100" cy="261" r="0.55" fill="#17181d" opacity="0.22"/>
<circle cx="160" cy="43" r="0.7" fill="#17181d" opacity="0.26"/>
<circle cx="220" cy="145" r="0.9" fill="#17181d" opacity="0.31"/>
<circle cx="280" cy="247" r="1.15" fill="#17181d" opacity="0.14"/>
<circle cx="197" cy="29" r="1.5" fill="#17181d" opacity="0.18"/>
<circle cx="257" cy="131" r="0.45" fill="#17181d" opacity="0.22"/>
<circle cx="317" cy="233" r="0.55" fill="#17181d" opacity="0.26"/>
<circle cx="57" cy="202" r="0.7" fill="#17181d" opacity="0.31"/>
<circle cx="117" cy="304" r="0.9" fill="#17181d" opacity="0.14"/>
<circle cx="177" cy="86" r="1.15" fill="#17181d" opacity="0.18"/>
<circle cx="237" cy="188" r="1.5" fill="#17181d" opacity="0.22"/>
<circle cx="297" cy="290" r="0.45" fill="#17181d" opacity="0.26"/>
<circle cx="37" cy="72" r="0.55" fill="#17181d" opacity="0.31"/>
<circle cx="97" cy="174" r="0.7" fill="#17181d" opacity="0.14"/>
<circle cx="157" cy="143" r="0.9" fill="#17181d" opacity="0.18"/>
<circle cx="74" cy="245" r="1.15" fill="#17181d" opacity="0.22"/>
<circle cx="134" cy="27" r="1.5" fill="#17181d" opacity="0.26"/>
<circle cx="194" cy="129" r="0.45" fill="#17181d" opacity="0.31"/>
<circle cx="254" cy="231" r="0.55" fill="#17181d" opacity="0.14"/>
<circle cx="314" cy="13" r="0.7" fill="#17181d" opacity="0.18"/>
<circle cx="54" cy="115" r="0.9" fill="#17181d" opacity="0.22"/>
<circle cx="114" cy="84" r="1.15" fill="#17181d" opacity="0.26"/>
<circle cx="174" cy="186" r="1.5" fill="#17181d" opacity="0.31"/>
<circle cx="234" cy="288" r="0.45" fill="#17181d" opacity="0.14"/>
<circle cx="294" cy="70" r="0.55" fill="#17181d" opacity="0.18"/>
<circle cx="34" cy="172" r="0.7" fill="#17181d" opacity="0.22"/>
<circle cx="271" cy="274" r="0.9" fill="#17181d" opacity="0.26"/>
<circle cx="11" cy="56" r="1.15" fill="#17181d" opacity="0.31"/>
<circle cx="71" cy="25" r="1.5" fill="#17181d" opacity="0.14"/>
<circle cx="131" cy="127" r="0.45" fill="#17181d" opacity="0.18"/>
<circle cx="191" cy="229" r="0.55" fill="#17181d" opacity="0.22"/>
<circle cx="251" cy="11" r="0.7" fill="#17181d" opacity="0.26"/>
<circle cx="311" cy="113" r="0.9" fill="#17181d" opacity="0.31"/>
<circle cx="51" cy="215" r="1.15" fill="#17181d" opacity="0.14"/>
<circle cx="111" cy="317" r="1.5" fill="#17181d" opacity="0.18"/>
<circle cx="171" cy="286" r="0.45" fill="#17181d" opacity="0.22"/>
<circle cx="231" cy="68" r="0.55" fill="#17181d" opacity="0.26"/>
<circle cx="148" cy="170" r="0.7" fill="#17181d" opacity="0.31"/>
<circle cx="208" cy="272" r="0.9" fill="#17181d" opacity="0.14"/>
<circle cx="268" cy="54" r="1.15" fill="#17181d" opacity="0.18"/>
<circle cx="8" cy="156" r="1.5" fill="#17181d" opacity="0.22"/>
<circle cx="68" cy="258" r="0.45" fill="#17181d" opacity="0.26"/>
<circle cx="128" cy="227" r="0.55" fill="#17181d" opacity="0.31"/>
<circle cx="188" cy="9" r="0.7" fill="#17181d" opacity="0.14"/>
<circle cx="248" cy="111" r="0.9" fill="#17181d" opacity="0.18"/>
<circle cx="308" cy="213" r="1.15" fill="#17181d" opacity="0.22"/>
<circle cx="48" cy="315" r="1.5" fill="#17181d" opacity="0.26"/>
<circle cx="108" cy="97" r="0.45" fill="#17181d" opacity="0.31"/>
<circle cx="25" cy="199" r="0.55" fill="#17181d" opacity="0.14"/>
<circle cx="85" cy="168" r="0.7" fill="#17181d" opacity="0.18"/>
<circle cx="145" cy="270" r="0.9" fill="#17181d" opacity="0.22"/>
<circle cx="205" cy="52" r="1.15" fill="#17181d" opacity="0.26"/>
<circle cx="265" cy="154" r="1.5" fill="#17181d" opacity="0.31"/>
<circle cx="5" cy="256" r="0.45" fill="#17181d" opacity="0.14"/>
<circle cx="65" cy="38" r="0.55" fill="#17181d" opacity="0.18"/>
<circle cx="125" cy="140" r="0.7" fill="#17181d" opacity="0.22"/>
<circle cx="185" cy="109" r="0.9" fill="#17181d" opacity="0.26"/>
<circle cx="245" cy="211" r="1.15" fill="#17181d" opacity="0.31"/>
<circle cx="305" cy="313" r="1.5" fill="#17181d" opacity="0.14"/>
<circle cx="222" cy="95" r="0.45" fill="#17181d" opacity="0.18"/>
<circle cx="282" cy="197" r="0.55" fill="#17181d" opacity="0.22"/>
<circle cx="22" cy="299" r="0.7" fill="#17181d" opacity="0.26"/>
<circle cx="82" cy="81" r="0.9" fill="#17181d" opacity="0.31"/>
<circle cx="142" cy="50" r="1.15" fill="#17181d" opacity="0.14"/>
<circle cx="202" cy="152" r="1.5" fill="#17181d" opacity="0.18"/>
<circle cx="262" cy="254" r="0.45" fill="#17181d" opacity="0.22"/>
<circle cx="2" cy="36" r="0.55" fill="#17181d" opacity="0.26"/>
<circle cx="62" cy="138" r="0.7" fill="#17181d" opacity="0.31"/>
<circle cx="122" cy="240" r="0.9" fill="#17181d" opacity="0.14"/>
<circle cx="182" cy="22" r="1.15" fill="#17181d" opacity="0.18"/>
<circle cx="99" cy="311" r="1.5" fill="#17181d" opacity="0.22"/>
<circle cx="159" cy="93" r="0.45" fill="#17181d" opacity="0.26"/>
<circle cx="219" cy="195" r="0.55" fill="#17181d" opacity="0.31"/>
<circle cx="279" cy="297" r="0.7" fill="#17181d" opacity="0.14"/>
<circle cx="19" cy="79" r="0.9" fill="#17181d" opacity="0.18"/>
<circle cx="79" cy="181" r="1.15" fill="#17181d" opacity="0.22"/>
<circle cx="139" cy="283" r="1.5" fill="#17181d" opacity="0.26"/>
<circle cx="199" cy="252" r="0.45" fill="#17181d" opacity="0.31"/>
<circle cx="259" cy="34" r="0.55" fill="#17181d" opacity="0.14"/>
<circle cx="319" cy="136" r="0.7" fill="#17181d" opacity="0.18"/>
<circle cx="59" cy="238" r="0.9" fill="#17181d" opacity="0.22"/>
<circle cx="296" cy="20" r="1.15" fill="#17181d" opacity="0.26"/>
<circle cx="36" cy="122" r="1.5" fill="#17181d" opacity="0.31"/>
<circle cx="96" cy="224" r="0.45" fill="#17181d" opacity="0.14"/>
<circle cx="156" cy="193" r="0.55" fill="#17181d" opacity="0.18"/>
<circle cx="216" cy="295" r="0.7" fill="#17181d" opacity="0.22"/>
<circle cx="276" cy="77" r="0.9" fill="#17181d" opacity="0.26"/>
<circle cx="16" cy="179" r="1.15" fill="#17181d" opacity="0.31"/>
<circle cx="76" cy="281" r="1.5" fill="#17181d" opacity="0.14"/>
<circle cx="136" cy="63" r="0.45" fill="#17181d" opacity="0.18"/>
<circle cx="196" cy="165" r="0.55" fill="#17181d" opacity="0.22"/>
<circle cx="256" cy="134" r="0.7" fill="#17181d" opacity="0.26"/>
<circle cx="173" cy="236" r="0.9" fill="#17181d" opacity="0.31"/>
<circle cx="233" cy="18" r="1.15" fill="#17181d" opacity="0.14"/>
<circle cx="293" cy="120" r="1.5" fill="#17181d" opacity="0.18"/>
<circle cx="33" cy="222" r="0.45" fill="#17181d" opacity="0.22"/>
<circle cx="93" cy="4" r="0.55" fill="#17181d" opacity="0.26"/>
<circle cx="153" cy="106" r="0.7" fill="#17181d" opacity="0.31"/>
<circle cx="213" cy="75" r="0.9" fill="#17181d" opacity="0.14"/>
<circle cx="273" cy="177" r="1.15" fill="#17181d" opacity="0.18"/>
<circle cx="13" cy="279" r="1.5" fill="#17181d" opacity="0.22"/>
<circle cx="73" cy="61" r="0.45" fill="#17181d" opacity="0.26"/>
<circle cx="133" cy="163" r="0.55" fill="#17181d" opacity="0.31"/>
<circle cx="50" cy="265" r="0.7" fill="#17181d" opacity="0.14"/>
<circle cx="110" cy="47" r="0.9" fill="#17181d" opacity="0.18"/>
<circle cx="170" cy="16" r="1.15" fill="#17181d" opacity="0.22"/>
<circle cx="230" cy="118" r="1.5" fill="#17181d" opacity="0.26"/>
<circle cx="290" cy="220" r="0.45" fill="#17181d" opacity="0.31"/>
<circle cx="30" cy="2" r="0.55" fill="#17181d" opacity="0.14"/>
<circle cx="90" cy="104" r="0.7" fill="#17181d" opacity="0.18"/>
<circle cx="150" cy="206" r="0.9" fill="#17181d" opacity="0.22"/>
<circle cx="210" cy="308" r="1.15" fill="#17181d" opacity="0.26"/>
<circle cx="270" cy="277" r="1.5" fill="#17181d" opacity="0.31"/>
<circle cx="10" cy="59" r="0.45" fill="#17181d" opacity="0.14"/>
<circle cx="247" cy="161" r="0.55" fill="#17181d" opacity="0.18"/>
<circle cx="307" cy="263" r="0.7" fill="#17181d" opacity="0.22"/>
<circle cx="47" cy="45" r="0.9" fill="#17181d" opacity="0.26"/>
<circle cx="107" cy="147" r="1.15" fill="#17181d" opacity="0.31"/>
<circle cx="167" cy="249" r="1.5" fill="#17181d" opacity="0.14"/>
<circle cx="227" cy="218" r="0.45" fill="#17181d" opacity="0.18"/>
<circle cx="287" cy="0" r="0.55" fill="#17181d" opacity="0.22"/>
<circle cx="27" cy="102" r="0.7" fill="#17181d" opacity="0.26"/>
<circle cx="87" cy="204" r="0.9" fill="#17181d" opacity="0.31"/>
<circle cx="147" cy="306" r="1.15" fill="#17181d" opacity="0.14"/>
<circle cx="207" cy="88" r="1.5" fill="#17181d" opacity="0.18"/>
<circle cx="124" cy="190" r="0.45" fill="#17181d" opacity="0.22"/>
<circle cx="184" cy="159" r="0.55" fill="#17181d" opacity="0.26"/>
<circle cx="244" cy="261" r="0.7" fill="#17181d" opacity="0.31"/>
<circle cx="304" cy="43" r="0.9" fill="#17181d" opacity="0.14"/>
<circle cx="44" cy="145" r="1.15" fill="#17181d" opacity="0.18"/>
<circle cx="104" cy="247" r="1.5" fill="#17181d" opacity="0.22"/>
<circle cx="164" cy="29" r="0.45" fill="#17181d" opacity="0.26"/>
<circle cx="224" cy="131" r="0.55" fill="#17181d" opacity="0.31"/>
<circle cx="284" cy="100" r="0.7" fill="#17181d" opacity="0.14"/>
<circle cx="24" cy="202" r="0.9" fill="#17181d" opacity="0.18"/>
<circle cx="84" cy="304" r="1.15" fill="#17181d" opacity="0.22"/>
<circle cx="1" cy="86" r="1.5" fill="#17181d" opacity="0.26"/>
<circle cx="61" cy="188" r="0.45" fill="#17181d" opacity="0.31"/>
<circle cx="121" cy="290" r="0.55" fill="#17181d" opacity="0.14"/>
<circle cx="181" cy="72" r="0.7" fill="#17181d" opacity="0.18"/>
<circle cx="241" cy="41" r="0.9" fill="#17181d" opacity="0.22"/>
<circle cx="301" cy="143" r="1.15" fill="#17181d" opacity="0.26"/>
<circle cx="41" cy="245" r="1.5" fill="#17181d" opacity="0.31"/>
<circle cx="101" cy="27" r="0.45" fill="#17181d" opacity="0.14"/>
<circle cx="161" cy="129" r="0.55" fill="#17181d" opacity="0.18"/>
<circle cx="221" cy="231" r="0.7" fill="#17181d" opacity="0.22"/>
<circle cx="281" cy="13" r="0.9" fill="#17181d" opacity="0.26"/>
<circle cx="198" cy="302" r="1.15" fill="#17181d" opacity="0.31"/>
<circle cx="258" cy="84" r="1.5" fill="#17181d" opacity="0.14"/>
<circle cx="318" cy="186" r="0.45" fill="#17181d" opacity="0.18"/>
<circle cx="58" cy="288" r="0.55" fill="#17181d" opacity="0.22"/>
<circle cx="118" cy="70" r="0.7" fill="#17181d" opacity="0.26"/>
<circle cx="178" cy="172" r="0.9" fill="#17181d" opacity="0.31"/>
<circle cx="238" cy="274" r="1.15" fill="#17181d" opacity="0.14"/>
<circle cx="298" cy="243" r="1.5" fill="#17181d" opacity="0.18"/>
<circle cx="38" cy="25" r="0.45" fill="#17181d" opacity="0.22"/>
<circle cx="98" cy="127" r="0.55" fill="#17181d" opacity="0.26"/>
<circle cx="158" cy="229" r="0.7" fill="#17181d" opacity="0.31"/>
<circle cx="75" cy="11" r="0.9" fill="#17181d" opacity="0.14"/>
<circle cx="135" cy="113" r="1.15" fill="#17181d" opacity="0.18"/>
<circle cx="195" cy="215" r="1.5" fill="#17181d" opacity="0.22"/>
<circle cx="255" cy="184" r="0.45" fill="#17181d" opacity="0.26"/>
<circle cx="315" cy="286" r="0.55" fill="#17181d" opacity="0.31"/>
<circle cx="55" cy="68" r="0.7" fill="#17181d" opacity="0.14"/>
<circle cx="115" cy="170" r="0.9" fill="#17181d" opacity="0.18"/>
<circle cx="175" cy="272" r="1.15" fill="#17181d" opacity="0.22"/>
<circle cx="235" cy="54" r="1.5" fill="#17181d" opacity="0.26"/>
<circle cx="295" cy="156" r="0.45" fill="#17181d" opacity="0.31"/>
<circle cx="35" cy="125" r="0.55" fill="#17181d" opacity="0.14"/>
<circle cx="272" cy="227" r="0.7" fill="#17181d" opacity="0.18"/>
<circle cx="12" cy="9" r="0.9" fill="#17181d" opacity="0.22"/>
<circle cx="72" cy="111" r="1.15" fill="#17181d" opacity="0.26"/>
<circle cx="132" cy="213" r="1.5" fill="#17181d" opacity="0.31"/>
<circle cx="192" cy="315" r="0.45" fill="#17181d" opacity="0.14"/>
<circle cx="252" cy="97" r="0.55" fill="#17181d" opacity="0.18"/>
<circle cx="312" cy="66" r="0.7" fill="#17181d" opacity="0.22"/>
<circle cx="52" cy="168" r="0.9" fill="#17181d" opacity="0.26"/>
<circle cx="112" cy="270" r="1.15" fill="#17181d" opacity="0.31"/>
<circle cx="172" cy="52" r="1.5" fill="#17181d" opacity="0.14"/>
<circle cx="232" cy="154" r="0.45" fill="#17181d" opacity="0.18"/>
<circle cx="149" cy="256" r="0.55" fill="#17181d" opacity="0.22"/>
<circle cx="209" cy="38" r="0.7" fill="#17181d" opacity="0.26"/>
<circle cx="269" cy="7" r="0.9" fill="#17181d" opacity="0.31"/>
<circle cx="9" cy="109" r="1.15" fill="#17181d" opacity="0.14"/>
<circle cx="69" cy="211" r="1.5" fill="#17181d" opacity="0.18"/>
<circle cx="129" cy="313" r="0.45" fill="#17181d" opacity="0.22"/>
<circle cx="189" cy="95" r="0.55" fill="#17181d" opacity="0.26"/>
<circle cx="249" cy="197" r="0.7" fill="#17181d" opacity="0.31"/>
<circle cx="309" cy="299" r="0.9" fill="#17181d" opacity="0.14"/>
<circle cx="49" cy="268" r="1.15" fill="#17181d" opacity="0.18"/>
<circle cx="109" cy="50" r="1.5" fill="#17181d" opacity="0.22"/>
<circle cx="26" cy="152" r="0.45" fill="#17181d" opacity="0.26"/>
<circle cx="86" cy="254" r="0.55" fill="#17181d" opacity="0.31"/>
<circle cx="146" cy="36" r="0.7" fill="#17181d" opacity="0.14"/>
<circle cx="206" cy="138" r="0.9" fill="#17181d" opacity="0.18"/>
<circle cx="266" cy="240" r="1.15" fill="#17181d" opacity="0.22"/>
<circle cx="6" cy="209" r="1.5" fill="#17181d" opacity="0.26"/>
<circle cx="66" cy="311" r="0.45" fill="#17181d" opacity="0.31"/>
<circle cx="126" cy="93" r="0.55" fill="#17181d" opacity="0.14"/>
<circle cx="186" cy="195" r="0.7" fill="#17181d" opacity="0.18"/>
<circle cx="246" cy="297" r="0.9" fill="#17181d" opacity="0.22"/>
<circle cx="306" cy="79" r="1.15" fill="#17181d" opacity="0.26"/>
<circle cx="223" cy="181" r="1.5" fill="#17181d" opacity="0.31"/>
<circle cx="283" cy="150" r="0.45" fill="#17181d" opacity="0.14"/>
<circle cx="23" cy="252" r="0.55" fill="#17181d" opacity="0.18"/>
<circle cx="83" cy="34" r="0.7" fill="#17181d" opacity="0.22"/>
<circle cx="143" cy="136" r="0.9" fill="#17181d" opacity="0.26"/>
<circle cx="203" cy="238" r="1.15" fill="#17181d" opacity="0.31"/>
<circle cx="263" cy="20" r="1.5" fill="#17181d" opacity="0.14"/>
<circle cx="3" cy="122" r="0.45" fill="#17181d" opacity="0.18"/>
<circle cx="63" cy="91" r="0.55" fill="#17181d" opacity="0.22"/>
<circle cx="123" cy="193" r="0.7" fill="#17181d" opacity="0.26"/>
<circle cx="183" cy="295" r="0.9" fill="#17181d" opacity="0.31"/>
<circle cx="100" cy="77" r="1.15" fill="#17181d" opacity="0.14"/>
<circle cx="160" cy="179" r="1.5" fill="#17181d" opacity="0.18"/>
<circle cx="220" cy="281" r="0.45" fill="#17181d" opacity="0.22"/>
<circle cx="280" cy="63" r="0.55" fill="#17181d" opacity="0.26"/>
<circle cx="20" cy="32" r="0.7" fill="#17181d" opacity="0.31"/>
<circle cx="80" cy="134" r="0.9" fill="#17181d" opacity="0.14"/>
<circle cx="140" cy="236" r="1.15" fill="#17181d" opacity="0.18"/>
<circle cx="200" cy="18" r="1.5" fill="#17181d" opacity="0.22"/>
<circle cx="260" cy="120" r="0.45" fill="#17181d" opacity="0.26"/>
<circle cx="0" cy="222" r="0.55" fill="#17181d" opacity="0.31"/>
<circle cx="60" cy="4" r="0.7" fill="#17181d" opacity="0.14"/>
<circle cx="297" cy="293" r="0.9" fill="#17181d" opacity="0.18"/>
<circle cx="37" cy="75" r="1.15" fill="#17181d" opacity="0.22"/>
<circle cx="97" cy="177" r="1.5" fill="#17181d" opacity="0.26"/>
<circle cx="157" cy="279" r="0.45" fill="#17181d" opacity="0.31"/>
<circle cx="217" cy="61" r="0.55" fill="#17181d" opacity="0.14"/>
<circle cx="277" cy="163" r="0.7" fill="#17181d" opacity="0.18"/>
<circle cx="17" cy="265" r="0.9" fill="#17181d" opacity="0.22"/>
<circle cx="77" cy="234" r="1.15" fill="#17181d" opacity="0.26"/>
<circle cx="137" cy="16" r="1.5" fill="#17181d" opacity="0.31"/>
<circle cx="197" cy="118" r="0.45" fill="#17181d" opacity="0.14"/>
<circle cx="257" cy="220" r="0.55" fill="#17181d" opacity="0.18"/>
<circle cx="174" cy="2" r="0.7" fill="#17181d" opacity="0.22"/>
<circle cx="234" cy="104" r="0.9" fill="#17181d" opacity="0.26"/>
<circle cx="294" cy="206" r="1.15" fill="#17181d" opacity="0.31"/>
<circle cx="34" cy="175" r="1.5" fill="#17181d" opacity="0.14"/>
<circle cx="94" cy="277" r="0.45" fill="#17181d" opacity="0.18"/>
<circle cx="154" cy="59" r="0.55" fill="#17181d" opacity="0.22"/>
<circle cx="214" cy="161" r="0.7" fill="#17181d" opacity="0.26"/>
<circle cx="274" cy="263" r="0.9" fill="#17181d" opacity="0.31"/>
<circle cx="14" cy="45" r="1.15" fill="#17181d" opacity="0.14"/>
<circle cx="74" cy="147" r="1.5" fill="#17181d" opacity="0.18"/>
<circle cx="134" cy="116" r="0.45" fill="#17181d" opacity="0.22"/>
<circle cx="51" cy="218" r="0.55" fill="#17181d" opacity="0.26"/>
<circle cx="111" cy="0" r="0.7" fill="#17181d" opacity="0.31"/>
<circle cx="171" cy="102" r="0.9" fill="#17181d" opacity="0.14"/>
<circle cx="231" cy="204" r="1.15" fill="#17181d" opacity="0.18"/>
<circle cx="291" cy="306" r="1.5" fill="#17181d" opacity="0.22"/>
<circle cx="31" cy="88" r="0.45" fill="#17181d" opacity="0.26"/>
<circle cx="91" cy="57" r="0.55" fill="#17181d" opacity="0.31"/>
<circle cx="151" cy="159" r="0.7" fill="#17181d" opacity="0.14"/>
<circle cx="211" cy="261" r="0.9" fill="#17181d" opacity="0.18"/>
<circle cx="271" cy="43" r="1.15" fill="#17181d" opacity="0.22"/>
<circle cx="11" cy="145" r="1.5" fill="#17181d" opacity="0.26"/>
<circle cx="248" cy="247" r="0.45" fill="#17181d" opacity="0.31"/>
<circle cx="308" cy="29" r="0.55" fill="#17181d" opacity="0.14"/>
<circle cx="48" cy="318" r="0.7" fill="#17181d" opacity="0.18"/>
<circle cx="108" cy="100" r="0.9" fill="#17181d" opacity="0.22"/>
<circle cx="168" cy="202" r="1.15" fill="#17181d" opacity="0.26"/>
<circle cx="228" cy="304" r="1.5" fill="#17181d" opacity="0.31"/>
<circle cx="288" cy="86" r="0.45" fill="#17181d" opacity="0.14"/>
<circle cx="28" cy="188" r="0.55" fill="#17181d" opacity="0.18"/>
<circle cx="88" cy="290" r="0.7" fill="#17181d" opacity="0.22"/>
<circle cx="148" cy="259" r="0.9" fill="#17181d" opacity="0.26"/>
<circle cx="208" cy="41" r="1.15" fill="#17181d" opacity="0.31"/>
<circle cx="125" cy="143" r="1.5" fill="#17181d" opacity="0.14"/>
<circle cx="185" cy="245" r="0.45" fill="#17181d" opacity="0.18"/>
<circle cx="245" cy="27" r="0.55" fill="#17181d" opacity="0.22"/>
<circle cx="305" cy="129" r="0.7" fill="#17181d" opacity="0.26"/>
<circle cx="45" cy="231" r="0.9" fill="#17181d" opacity="0.31"/>
<circle cx="105" cy="200" r="1.15" fill="#17181d" opacity="0.14"/>
<circle cx="165" cy="302" r="1.5" fill="#17181d" opacity="0.18"/>
<circle cx="225" cy="84" r="0.45" fill="#17181d" opacity="0.22"/>
<circle cx="285" cy="186" r="0.55" fill="#17181d" opacity="0.26"/>
<circle cx="25" cy="288" r="0.7" fill="#17181d" opacity="0.31"/>
<circle cx="85" cy="70" r="0.9" fill="#17181d" opacity="0.14"/>
<circle cx="2" cy="172" r="1.15" fill="#17181d" opacity="0.18"/>
<circle cx="62" cy="141" r="1.5" fill="#17181d" opacity="0.22"/>
<circle cx="122" cy="243" r="0.45" fill="#17181d" opacity="0.26"/>
<circle cx="182" cy="25" r="0.55" fill="#17181d" opacity="0.31"/>
<circle cx="242" cy="127" r="0.7" fill="#17181d" opacity="0.14"/>
<circle cx="302" cy="229" r="0.9" fill="#17181d" opacity="0.18"/>
<circle cx="42" cy="11" r="1.15" fill="#17181d" opacity="0.22"/>
<circle cx="102" cy="113" r="1.5" fill="#17181d" opacity="0.26"/>
<circle cx="162" cy="82" r="0.45" fill="#17181d" opacity="0.31"/>
<circle cx="222" cy="184" r="0.55" fill="#17181d" opacity="0.14"/>
<circle cx="282" cy="286" r="0.7" fill="#17181d" opacity="0.18"/>
<circle cx="199" cy="68" r="0.9" fill="#17181d" opacity="0.22"/>
<circle cx="259" cy="170" r="1.15" fill="#17181d" opacity="0.26"/>
<circle cx="319" cy="272" r="1.5" fill="#17181d" opacity="0.31"/>
<circle cx="59" cy="54" r="0.45" fill="#17181d" opacity="0.14"/>
<circle cx="119" cy="23" r="0.55" fill="#17181d" opacity="0.18"/>
<circle cx="179" cy="125" r="0.7" fill="#17181d" opacity="0.22"/>
<circle cx="239" cy="227" r="0.9" fill="#17181d" opacity="0.26"/>
<circle cx="299" cy="9" r="1.15" fill="#17181d" opacity="0.31"/>
<circle cx="39" cy="111" r="1.5" fill="#17181d" opacity="0.14"/>
<circle cx="99" cy="213" r="0.45" fill="#17181d" opacity="0.18"/>
<circle cx="159" cy="315" r="0.55" fill="#17181d" opacity="0.22"/>
<circle cx="76" cy="284" r="0.7" fill="#17181d" opacity="0.26"/>
<circle cx="136" cy="66" r="0.9" fill="#17181d" opacity="0.31"/>
<circle cx="196" cy="168" r="1.15" fill="#17181d" opacity="0.14"/>
<circle cx="256" cy="270" r="1.5" fill="#17181d" opacity="0.18"/>
<circle cx="316" cy="52" r="0.45" fill="#17181d" opacity="0.22"/>
<circle cx="56" cy="154" r="0.55" fill="#17181d" opacity="0.26"/>
<circle cx="116" cy="256" r="0.7" fill="#17181d" opacity="0.31"/>
<circle cx="176" cy="225" r="0.9" fill="#17181d" opacity="0.14"/>
<circle cx="236" cy="7" r="1.15" fill="#17181d" opacity="0.18"/>
<circle cx="296" cy="109" r="1.5" fill="#17181d" opacity="0.22"/>
<circle cx="36" cy="211" r="0.45" fill="#17181d" opacity="0.26"/>
<circle cx="273" cy="313" r="0.55" fill="#17181d" opacity="0.31"/>
<circle cx="13" cy="95" r="0.7" fill="#17181d" opacity="0.14"/>
<circle cx="73" cy="197" r="0.9" fill="#17181d" opacity="0.18"/>
<circle cx="133" cy="166" r="1.15" fill="#17181d" opacity="0.22"/>
<circle cx="193" cy="268" r="1.5" fill="#17181d" opacity="0.26"/>
<circle cx="253" cy="50" r="0.45" fill="#17181d" opacity="0.31"/>
<circle cx="313" cy="152" r="0.55" fill="#17181d" opacity="0.14"/>
<circle cx="53" cy="254" r="0.7" fill="#17181d" opacity="0.18"/>
<circle cx="113" cy="36" r="0.9" fill="#17181d" opacity="0.22"/>
<circle cx="173" cy="138" r="1.15" fill="#17181d" opacity="0.26"/>
<circle cx="233" cy="107" r="1.5" fill="#17181d" opacity="0.31"/>
<circle cx="150" cy="209" r="0.45" fill="#17181d" opacity="0.14"/>
<circle cx="210" cy="311" r="0.55" fill="#17181d" opacity="0.18"/>
<circle cx="270" cy="93" r="0.7" fill="#17181d" opacity="0.22"/>
<circle cx="10" cy="195" r="0.9" fill="#17181d" opacity="0.26"/>
<circle cx="70" cy="297" r="1.15" fill="#17181d" opacity="0.31"/>
<circle cx="130" cy="79" r="1.5" fill="#17181d" opacity="0.14"/>
<circle cx="190" cy="48" r="0.45" fill="#17181d" opacity="0.18"/>
<circle cx="250" cy="150" r="0.55" fill="#17181d" opacity="0.22"/>
<circle cx="310" cy="252" r="0.7" fill="#17181d" opacity="0.26"/>
<circle cx="50" cy="34" r="0.9" fill="#17181d" opacity="0.31"/>
<circle cx="110" cy="136" r="1.15" fill="#17181d" opacity="0.14"/>
<circle cx="27" cy="238" r="1.5" fill="#17181d" opacity="0.18"/>
<circle cx="87" cy="20" r="0.45" fill="#17181d" opacity="0.22"/>
<circle cx="147" cy="309" r="0.55" fill="#17181d" opacity="0.26"/>
<circle cx="207" cy="91" r="0.7" fill="#17181d" opacity="0.31"/>
<circle cx="267" cy="193" r="0.9" fill="#17181d" opacity="0.14"/>
<circle cx="7" cy="295" r="1.15" fill="#17181d" opacity="0.18"/>
<circle cx="67" cy="77" r="1.5" fill="#17181d" opacity="0.22"/>
<circle cx="127" cy="179" r="0.45" fill="#17181d" opacity="0.26"/>
<circle cx="187" cy="281" r="0.55" fill="#17181d" opacity="0.31"/>
<circle cx="247" cy="250" r="0.7" fill="#17181d" opacity="0.14"/>
<circle cx="307" cy="32" r="0.9" fill="#17181d" opacity="0.18"/>
<circle cx="224" cy="134" r="1.15" fill="#17181d" opacity="0.22"/>
<circle cx="284" cy="236" r="1.5" fill="#17181d" opacity="0.26"/>
<circle cx="24" cy="18" r="0.45" fill="#17181d" opacity="0.31"/>
<circle cx="84" cy="120" r="0.55" fill="#17181d" opacity="0.14"/>
<circle cx="144" cy="222" r="0.7" fill="#17181d" opacity="0.18"/>
<circle cx="204" cy="191" r="0.9" fill="#17181d" opacity="0.22"/>
<circle cx="264" cy="293" r="1.15" fill="#17181d" opacity="0.26"/>
<circle cx="4" cy="75" r="1.5" fill="#17181d" opacity="0.31"/>
<path d="M17 29 l8 -1" stroke="#17181d" stroke-width="0.7" stroke-linecap="round" opacity="0.09"/>
<path d="M88 66 l13 0" stroke="#17181d" stroke-width="0.7" stroke-linecap="round" opacity="0.12"/>
<path d="M159 103 l18 1" stroke="#17181d" stroke-width="0.7" stroke-linecap="round" opacity="0.15"/>
<path d="M230 140 l23 -1" stroke="#17181d" stroke-width="0.7" stroke-linecap="round" opacity="0.09"/>
<path d="M301 177 l28 0" stroke="#17181d" stroke-width="0.7" stroke-linecap="round" opacity="0.12"/>
<path d="M52 214 l33 1" stroke="#17181d" stroke-width="0.7" stroke-linecap="round" opacity="0.15"/>
<path d="M123 251 l8 -1" stroke="#17181d" stroke-width="0.7" stroke-linecap="round" opacity="0.09"/>
<path d="M194 288 l13 0" stroke="#17181d" stroke-width="0.7" stroke-linecap="round" opacity="0.12"/>
<path d="M265 5 l18 1" stroke="#17181d" stroke-width="0.7" stroke-linecap="round" opacity="0.15"/>
<path d="M16 42 l23 -1" stroke="#17181d" stroke-width="0.7" stroke-linecap="round" opacity="0.09"/>
<path d="M87 79 l28 0" stroke="#17181d" stroke-width="0.7" stroke-linecap="round" opacity="0.12"/>
<path d="M158 116 l33 1" stroke="#17181d" stroke-width="0.7" stroke-linecap="round" opacity="0.15"/>
<path d="M229 153 l8 -1" stroke="#17181d" stroke-width="0.7" stroke-linecap="round" opacity="0.09"/>
<path d="M300 190 l13 0" stroke="#17181d" stroke-width="0.7" stroke-linecap="round" opacity="0.12"/>
<path d="M51 227 l18 1" stroke="#17181d" stroke-width="0.7" stroke-linecap="round" opacity="0.15"/>
<path d="M122 264 l23 -1" stroke="#17181d" stroke-width="0.7" stroke-linecap="round" opacity="0.09"/>
<path d="M193 301 l28 0" stroke="#17181d" stroke-width="0.7" stroke-linecap="round" opacity="0.12"/>
<path d="M264 18 l33 1" stroke="#17181d" stroke-width="0.7" stroke-linecap="round" opacity="0.15"/>
<path d="M15 55 l8 -1" stroke="#17181d" stroke-width="0.7" stroke-linecap="round" opacity="0.09"/>
<path d="M86 92 l13 0" stroke="#17181d" stroke-width="0.7" stroke-linecap="round" opacity="0.12"/>
<path d="M157 129 l18 1" stroke="#17181d" stroke-width="0.7" stroke-linecap="round" opacity="0.15"/>
<path d="M228 166 l23 -1" stroke="#17181d" stroke-width="0.7" stroke-linecap="round" opacity="0.09"/>
<path d="M299 203 l28 0" stroke="#17181d" stroke-width="0.7" stroke-linecap="round" opacity="0.12"/>
<path d="M50 240 l33 1" stroke="#17181d" stroke-width="0.7" stroke-linecap="round" opacity="0.15"/>
<path d="M121 277 l8 -1" stroke="#17181d" stroke-width="0.7" stroke-linecap="round" opacity="0.09"/>
<path d="M192 314 l13 0" stroke="#17181d" stroke-width="0.7" stroke-linecap="round" opacity="0.12"/>
<path d="M263 31 l18 1" stroke="#17181d" stroke-width="0.7" stroke-linecap="round" opacity="0.15"/>
<path d="M14 68 l23 -1" stroke="#17181d" stroke-width="0.7" stroke-linecap="round" opacity="0.09"/>
<path d="M85 105 l28 0" stroke="#17181d" stroke-width="0.7" stroke-linecap="round" opacity="0.12"/>
<path d="M156 142 l33 1" stroke="#17181d" stroke-width="0.7" stroke-linecap="round" opacity="0.15"/>
<path d="M227 179 l8 -1" stroke="#17181d" stroke-width="0.7" stroke-linecap="round" opacity="0.09"/>
<path d="M298 216 l13 0" stroke="#17181d" stroke-width="0.7" stroke-linecap="round" opacity="0.12"/>
<path d="M49 253 l18 1" stroke="#17181d" stroke-width="0.7" stroke-linecap="round" opacity="0.15"/>
<path d="M120 290 l23 -1" stroke="#17181d" stroke-width="0.7" stroke-linecap="round" opacity="0.09"/>
<path d="M191 7 l28 0" stroke="#17181d" stroke-width="0.7" stroke-linecap="round" opacity="0.12"/>
<path d="M262 44 l33 1" stroke="#17181d" stroke-width="0.7" stroke-linecap="round" opacity="0.15"/>
<path d="M13 81 l8 -1" stroke="#17181d" stroke-width="0.7" stroke-linecap="round" opacity="0.09"/>
<path d="M84 118 l13 0" stroke="#17181d" stroke-width="0.7" stroke-linecap="round" opacity="0.12"/>
<path d="M155 155 l18 1" stroke="#17181d" stroke-width="0.7" stroke-linecap="round" opacity="0.15"/>
<path d="M226 192 l23 -1" stroke="#17181d" stroke-width="0.7" stroke-linecap="round" opacity="0.09"/>
<path d="M297 229 l28 0" stroke="#17181d" stroke-width="0.7" stroke-linecap="round" opacity="0.12"/>
<path d="M48 266 l33 1" stroke="#17181d" stroke-width="0.7" stroke-linecap="round" opacity="0.15"/>
</svg>